<?xml version="1.0" standalone="no"?>
<!DOCTYPE svg PUBLIC "-//W3C//DTD SVG 20010904//EN"
 "http://www.w3.org/TR/2001/REC-SVG-20010904/DTD/svg10.dtd">
<svg version="1.0" xmlns="http://www.w3.org/2000/svg"
 width="512.000000pt" height="512.000000pt" viewBox="0 0 512.000000 512.000000"
 preserveAspectRatio="xMidYMid meet">

<g transform="translate(0.000000,512.000000) scale(0.100000,-0.100000)"
fill="#000000" stroke="none">
<path d="M2890 3591 c-60 -19 -182 -79 -300 -147 -151 -86 -179 -84 -438 30
-92 40 -189 80 -217 89 -51 16 -115 19 -115 6 0 -4 -64 -8 -143 -10 -142 -4
-144 -4 -220 -42 -121 -60 -213 -183 -243 -329 -39 -187 56 -424 228 -568 68
-57 174 -171 351 -380 229 -268 435 -481 520 -537 81 -53 179 -53 258 0 18 12
63 57 99 99 244 285 396 450 504 547 78 70 164 172 205 244 18 31 61 91 98
134 105 126 173 290 173 423 0 58 -24 157 -51 216 -30 62 -107 144 -166 176
-75 41 -154 55 -328 61 -135 4 -169 2 -215 -12z m250 -96 c22 -23 22 -25 4
-26 -103 -2 -175 -19 -264 -62 -113 -53 -165 -71 -187 -63 -14 6 -14 9 3 27
24 27 135 89 160 89 10 0 48 14 84 29 88 39 167 42 200 6z m-1330 -51 l45 -21
-118 -8 c-112 -7 -120 -6 -139 13 -35 34 -15 44 81 40 59 -3 100 -10 131 -24z
m165 -54 c23 -25 10 -25 -35 0 -34 18 -34 19 -9 20 14 0 34 -9 44 -20z m990
-286 c-38 -6 -78 -15 -87 -19 -10 -4 -18 -4 -18 -1 0 17 121 46 155 37 11 -3
-10 -10 -50 -17z m-952 -64 c35 -11 70 -27 77 -35 11 -14 10 -14 -13 -6 -39
15 -165 43 -232 51 l-60 7 81 1 c57 2 101 -4 147 -18z"/>
</g>
</svg>
