<?xml version="1.0" standalone="no"?>
<!DOCTYPE svg PUBLIC "-//W3C//DTD SVG 20010904//EN"
 "http://www.w3.org/TR/2001/REC-SVG-20010904/DTD/svg10.dtd">
<svg version="1.0" xmlns="http://www.w3.org/2000/svg"
 width="512.000000pt" height="512.000000pt" viewBox="0 0 512.000000 512.000000"
 preserveAspectRatio="xMidYMid meet">

<g transform="translate(0.000000,512.000000) scale(0.100000,-0.100000)"
fill="#000000" stroke="none">
<path d="M2895 3362 c-88 -23 -148 -50 -222 -99 -32 -22 -116 -70 -187 -107
-71 -37 -145 -78 -163 -91 l-34 -23 -70 48 c-45 31 -100 57 -157 75 -48 16
-159 56 -248 91 -212 83 -297 105 -409 105 -175 1 -302 -76 -377 -228 -27 -55
-33 -80 -36 -152 -5 -111 9 -179 59 -276 82 -161 206 -303 332 -380 59 -36 69
-48 107 -120 52 -97 82 -134 160 -201 57 -48 93 -93 249 -310 37 -50 98 -126
138 -170 39 -43 91 -104 115 -134 24 -30 59 -63 78 -74 41 -24 32 -6 -18 38
-54 48 -63 58 -57 64 3 4 10 0 15 -7 4 -8 15 -11 24 -8 10 4 16 1 16 -8 0 -8
18 -26 40 -40 50 -32 120 -34 168 -5 44 27 50 25 22 -5 -45 -48 2 -24 51 26
54 56 69 92 16 41 -18 -18 -37 -32 -42 -32 -16 0 57 68 79 74 12 3 41 35 66
73 25 37 72 97 105 133 66 71 100 114 163 205 47 68 154 185 170 185 6 0 12 3
14 8 2 4 25 18 52 32 112 58 168 132 240 319 20 52 52 120 71 151 46 76 84
160 101 223 20 75 18 203 -5 276 -20 64 -84 161 -106 161 -8 0 -20 12 -27 26
-52 104 -306 164 -493 116z m-1298 -164 c51 -17 92 -32 90 -35 -2 -2 -44 6
-93 17 -187 44 -256 38 -354 -29 -47 -32 -62 -50 -98 -122 -24 -46 -41 -75
-38 -64 3 11 8 34 12 50 22 98 115 189 219 216 52 14 164 0 262 -33z m1627 22
c103 -39 194 -156 210 -270 l6 -45 -28 56 c-42 81 -88 145 -125 173 -50 38
-105 46 -247 36 -350 -25 -348 -25 -241 19 128 54 325 68 425 31z m167 -553
c-10 -9 -11 -8 -5 6 3 10 9 15 12 12 3 -3 0 -11 -7 -18z m-35 -62 c-37 -47
-43 -44 -10 5 15 22 29 38 32 35 3 -2 -7 -20 -22 -40z m-1889 -160 c60 -25
102 -75 53 -62 -10 3 -20 1 -22 -3 -3 -9 -112 39 -143 64 -19 15 -18 15 28 16
26 0 64 -7 84 -15z m1722 -157 c-31 -46 -74 -79 -117 -89 -20 -4 -38 -7 -39
-5 -8 8 156 126 174 126 2 0 -7 -15 -18 -32z m-1426 -201 c4 -12 -16 -37 -28
-37 -3 0 -3 9 0 20 5 16 2 20 -16 20 -28 0 -109 82 -109 111 0 17 13 10 74
-41 41 -34 77 -67 79 -73z m190 -176 c3 2 36 -25 74 -61 135 -127 256 -224
310 -246 56 -22 88 -44 65 -44 -7 0 -12 -5 -12 -11 0 -6 20 5 44 24 24 20 45
35 47 34 2 -1 3 0 2 2 -5 8 20 31 28 25 5 -3 6 1 3 9 -5 15 74 90 196 185 36
28 78 64 94 79 29 28 29 28 -2 -12 -18 -22 -63 -78 -102 -125 -39 -47 -101
-123 -138 -170 -37 -46 -96 -115 -131 -152 -88 -93 -108 -93 -188 -1 -32 36
-100 111 -151 166 -57 61 -91 105 -88 114 3 8 2 12 -2 9 -5 -3 -44 36 -87 87
-67 80 -63 82 15 7 3 -3 50 -38 105 -79 55 -41 132 -106 171 -146 67 -66 73
-70 93 -57 27 18 27 35 1 27 -15 -5 -36 9 -87 59 -38 35 -97 86 -133 112 -81
59 -162 140 -185 183 l-17 33 35 -27 c19 -16 37 -26 40 -24z m495 -281 c-24
-33 -39 -37 -58 -15 -7 8 -26 15 -42 15 -18 0 -27 4 -23 11 5 7 25 8 55 4 29
-4 56 -2 67 4 26 15 26 14 1 -19z"/>
<path d="M2529 1598 c-17 -24 -18 -29 -6 -19 18 14 42 51 33 51 -3 0 -15 -15
-27 -32z"/>
<path d="M2479 1533 c-13 -16 -12 -17 4 -4 9 7 17 15 17 17 0 8 -8 3 -21 -13z"/>
<path d="M2290 1513 c0 -16 24 -33 47 -33 27 0 31 15 6 23 -10 2 -26 8 -35 12
-10 4 -18 3 -18 -2z"/>
<path d="M2380 1455 c-7 -8 -17 -12 -24 -8 -6 3 -6 0 2 -8 10 -11 16 -10 34 9
12 12 17 22 11 22 -6 0 -16 -7 -23 -15z"/>
<path d="M2358 1303 c7 -3 16 -2 19 1 4 3 -2 6 -13 5 -11 0 -14 -3 -6 -6z"/>
</g>
</svg>
