<svg id="visual" viewBox="0 0 900 600" width="900" height="600" xmlns="http://www.w3.org/2000/svg" xmlns:xlink="http://www.w3.org/1999/xlink" version="1.1"><g transform="translate(470.9017911217349 291.76310800556706)"><path d="M96.6 -167.5C119.4 -135.7 127.9 -99 143.8 -65.4C159.6 -31.7 182.7 -1 186.2 32.1C189.7 65.1 173.4 100.7 149.1 129.8C124.8 158.9 92.4 181.7 52.9 204.4C13.3 227.1 -33.3 249.8 -75.1 243.2C-116.8 236.7 -153.6 200.8 -166.5 159.2C-179.4 117.6 -168.4 70.1 -182.1 21.8C-195.9 -26.5 -234.4 -75.5 -227.7 -109.7C-221 -143.9 -169.2 -163.2 -123.7 -184.6C-78.2 -206 -39.1 -229.5 -1.1 -227.8C36.9 -226.2 73.9 -199.3 96.6 -167.5" fill="#d00000"></path></g></svg>