<svg id="visual" viewBox="0 0 960 150" width="960" height="150" xmlns="http://www.w3.org/2000/svg" xmlns:xlink="http://www.w3.org/1999/xlink" version="1.1"><path d="M0 45L22.8 43.8C45.7 42.7 91.3 40.3 137 42C182.7 43.7 228.3 49.3 274 53C319.7 56.7 365.3 58.3 411.2 56.5C457 54.7 503 49.3 548.8 48.5C594.7 47.7 640.3 51.3 686 52.2C731.7 53 777.3 51 823 49.3C868.7 47.7 914.3 46.3 937.2 45.7L960 45L960 0L937.2 0C914.3 0 868.7 0 823 0C777.3 0 731.7 0 686 0C640.3 0 594.7 0 548.8 0C503 0 457 0 411.2 0C365.3 0 319.7 0 274 0C228.3 0 182.7 0 137 0C91.3 0 45.7 0 22.8 0L0 0Z" fill="#03045e"></path><path d="M0 35L22.8 35C45.7 35 91.3 35 137 35C182.7 35 228.3 35 274 35.8C319.7 36.7 365.3 38.3 411.2 39.5C457 40.7 503 41.3 548.8 42.2C594.7 43 640.3 44 686 44.2C731.7 44.3 777.3 43.7 823 41.7C868.7 39.7 914.3 36.3 937.2 34.7L960 33L960 0L937.2 0C914.3 0 868.7 0 823 0C777.3 0 731.7 0 686 0C640.3 0 594.7 0 548.8 0C503 0 457 0 411.2 0C365.3 0 319.7 0 274 0C228.3 0 182.7 0 137 0C91.3 0 45.7 0 22.8 0L0 0Z" fill="#004491"></path><path d="M0 38L22.8 36.2C45.7 34.3 91.3 30.7 137 29C182.7 27.3 228.3 27.7 274 27.8C319.7 28 365.3 28 411.2 27.8C457 27.7 503 27.3 548.8 28.5C594.7 29.7 640.3 32.3 686 34C731.7 35.7 777.3 36.3 823 37C868.7 37.7 914.3 38.3 937.2 38.7L960 39L960 0L937.2 0C914.3 0 868.7 0 823 0C777.3 0 731.7 0 686 0C640.3 0 594.7 0 548.8 0C503 0 457 0 411.2 0C365.3 0 319.7 0 274 0C228.3 0 182.7 0 137 0C91.3 0 45.7 0 22.8 0L0 0Z" fill="#257eb7"></path><path d="M0 14L22.8 14.5C45.7 15 91.3 16 137 18.2C182.7 20.3 228.3 23.7 274 24.7C319.7 25.7 365.3 24.3 411.2 23.5C457 22.7 503 22.3 548.8 21.7C594.7 21 640.3 20 686 19.3C731.7 18.7 777.3 18.3 823 19.7C868.7 21 914.3 24 937.2 25.5L960 27L960 0L937.2 0C914.3 0 868.7 0 823 0C777.3 0 731.7 0 686 0C640.3 0 594.7 0 548.8 0C503 0 457 0 411.2 0C365.3 0 319.7 0 274 0C228.3 0 182.7 0 137 0C91.3 0 45.7 0 22.8 0L0 0Z" fill="#75b8d6"></path><path d="M0 14L22.8 12.5C45.7 11 91.3 8 137 7.5C182.7 7 228.3 9 274 10C319.7 11 365.3 11 411.2 11.8C457 12.7 503 14.3 548.8 14.7C594.7 15 640.3 14 686 13.2C731.7 12.3 777.3 11.7 823 12.2C868.7 12.7 914.3 14.3 937.2 15.2L960 16L960 0L937.2 0C914.3 0 868.7 0 823 0C777.3 0 731.7 0 686 0C640.3 0 594.7 0 548.8 0C503 0 457 0 411.2 0C365.3 0 319.7 0 274 0C228.3 0 182.7 0 137 0C91.3 0 45.7 0 22.8 0L0 0Z" fill="#caf0f8"></path></svg>