<svg id="visual" viewBox="0 0 960 300" width="960" height="300" xmlns="http://www.w3.org/2000/svg" xmlns:xlink="http://www.w3.org/1999/xlink" version="1.1"><path d="M0 256L53 256L53 170L107 170L107 268L160 268L160 271L213 271L213 176L267 176L267 202L320 202L320 170L373 170L373 167L427 167L427 217L480 217L480 264L533 264L533 189L587 189L587 185L640 185L640 228L693 228L693 198L747 198L747 217L800 217L800 268L853 268L853 189L907 189L907 179L960 179L960 265L960 301L960 301L907 301L907 301L853 301L853 301L800 301L800 301L747 301L747 301L693 301L693 301L640 301L640 301L587 301L587 301L533 301L533 301L480 301L480 301L427 301L427 301L373 301L373 301L320 301L320 301L267 301L267 301L213 301L213 301L160 301L160 301L107 301L107 301L53 301L53 301L0 301Z" fill="#6a040f" stroke-linecap="square" stroke-linejoin="miter"></path></svg>