<svg id="visual" viewBox="0 0 960 300" width="960" height="300" xmlns="http://www.w3.org/2000/svg" xmlns:xlink="http://www.w3.org/1999/xlink" version="1.1"><path d="M0 65L22.8 58.3C45.7 51.7 91.3 38.3 137 31.2C182.7 24 228.3 23 274 27.5C319.7 32 365.3 42 411.2 46.7C457 51.3 503 50.7 548.8 46C594.7 41.3 640.3 32.7 686 32.8C731.7 33 777.3 42 823 44.7C868.7 47.3 914.3 43.7 937.2 41.8L960 40L960 0L937.2 0C914.3 0 868.7 0 823 0C777.3 0 731.7 0 686 0C640.3 0 594.7 0 548.8 0C503 0 457 0 411.2 0C365.3 0 319.7 0 274 0C228.3 0 182.7 0 137 0C91.3 0 45.7 0 22.8 0L0 0Z" fill="#6a040f" stroke-linecap="round" stroke-linejoin="miter"></path></svg>